PathFileType        4      (X/Y/Z)      Flexion.trc         																																																																												
DataRate	CameraRate	NumFrames	NumMarkers	Units	OrigDataRate	OrigDataStartFrame	OrigNumFrames																																																																					
100	100	4	25	mm	100	790	1053																																																																					
Frame#	Time	AA			AI			Ant_Sh			CV7			GH			LAH			Lat_Sh			LCAJ			LPH			Post_Sh			RAH			RCAJ			RHLE			RHME			RPH			RUA			SJN			SXS			TS			TV8			centelbow			centpxt8			centijc7			centLPHRPH			ScapulaThoracicContactPt		
		X1	Y1	Z1	X2	Y2	Z2	X3	Y3	Z3	X4	Y4	Z4	X5	Y5	Z5	X6	Y6	Z6	X7	Y7	Z7	X8	Y8	Z8	X9	Y9	Z9	X10	Y10	Z10	X11	Y11	Z11	X12	Y12	Z12	X13	Y13	Z13	X14	Y14	Z14	X15	Y15	Z15	X16	Y16	Z16	X17	Y17	Z17	X18	Y18	Z18	X19	Y19	Z19	X20	Y20	Z20	X21	Y21	Z21	X22	Y22	Z22	X23	Y23	Z23	X24	Y24	Z24	X25	Y25	Z25
790	7.89	-862.6462402	1535.358887	-395.1804504	-925.9716187	1362.132324	-471.4345398	-756.2987671	1489.15625	-401.3690796	-883.1895752	1596.905518	-589.888916	-811.975769	1494.09668	-400.0592957	-682.9345703	1783.328369	-638.9744873	-809.6488037	1510.911377	-364.5662842	-831.3032837	1561.38855	-776.9376221	-883.1038818	1720.47583	-648.6784058	-896.3929443	1501.58728	-398.0734558	-684.6902466	1778.871826	-542.1939087	-804.5866089	1562.462402	-423.8201904	-820.572876	1220.761353	-290.3353271	-874.6337891	1181.634521	-388.6616211	-880.8513794	1720.096313	-532.0949097	-904.1525879	1357.073486	-344.5705872	-717.4686279	1507.133301	-602.1331787	-665.4234009	1332.960693	-609.4298096	-924.706604	1506.149292	-503.8127747	-898.3673706	1307.718872	-602.4325562	-847.6033325	1201.197937	-339.4984741	-781.8953857	1320.339783	-605.9311829	-800.3291016	1552.019409	-596.0110474	-881.9776306	1720.286072	-590.3866577	-904.4414876	1467.880168	-456.809255
791	7.9	-863.2171631	1535.493164	-395.2358398	-926.2042847	1362.240845	-471.6766357	-756.7870483	1489.198486	-401.1566467	-883.2515869	1596.936401	-589.9091187	-812.4255371	1494.132202	-400.0342407	-682.5195923	1783.139526	-638.4647827	-810.2133789	1511.01416	-364.5863037	-830.9917603	1561.5354	-776.8779907	-882.7926025	1720.68396	-648.5618286	-896.9116821	1501.624023	-398.329834	-684.4190674	1778.639648	-541.6573486	-805.0158081	1562.583496	-423.7320557	-822.1239014	1220.958374	-290.428833	-875.8049316	1181.824219	-388.9719849	-880.2000732	1719.854614	-533.4273071	-905.3044434	1357.417236	-344.8875732	-717.4993286	1507.161377	-601.8548584	-665.4268799	1332.968384	-609.1533813	-924.9351807	1506.232666	-504.0367737	-898.4372559	1307.739624	-602.607666	-848.9644165	1201.391296	-339.7004089	-781.9320679	1320.354004	-605.8805237	-800.3754578	1552.048889	-595.8819885	-881.4963379	1720.269287	-590.9945679	-904.7855428	1467.988892	-456.9830831
792	7.91	-863.8043823	1535.606079	-395.3492737	-926.4437256	1362.293579	-471.9499817	-757.3303223	1489.227661	-400.9587097	-883.2820435	1596.951782	-590.0195313	-812.9552612	1494.182495	-400.0227661	-682.1124878	1782.967041	-637.9614868	-810.8434448	1511.17981	-364.4940186	-830.6782227	1561.65564	-776.8007202	-882.5141602	1720.959717	-648.5125732	-897.376709	1501.702393	-398.6023254	-684.2180786	1778.415527	-541.138916	-805.4941406	1562.69397	-423.6611328	-823.4301758	1221.126587	-290.5316772	-876.8421631	1182.030029	-389.3053589	-880.1149902	1720.072388	-533.3439941	-906.2469482	1357.68335	-345.2000122	-717.5592651	1507.212402	-601.5875244	-665.5082397	1333.001465	-608.8515625	-925.2021484	1506.297119	-504.2320862	-898.5514526	1307.702148	-602.7346802	-850.1361694	1201.578308	-339.9185181	-782.0298462	1320.351807	-605.7931213	-800.4206543	1552.082092	-595.8035278	-881.3145752	1720.516052	-590.9282837	-905.1500854	1468.065592	-457.1771139
793	7.92	-864.3032837	1535.716187	-395.4284058	-926.6754761	1362.440918	-472.3154907	-757.9025269	1489.308716	-400.7824097	-883.3582153	1596.9646	-590.0568237	-813.4401855	1494.247192	-400.0167236	-681.7754517	1782.793457	-637.4509277	-811.418335	1511.452271	-364.3361816	-830.3518677	1561.815552	-776.7147217	-882.2683716	1721.185181	-648.4229126	-897.7444458	1501.743896	-398.8544312	-684.0403442	1778.234497	-540.6174927	-806.0298462	1562.824219	-423.6263428	-824.7629395	1221.359497	-290.6128845	-877.8052368	1182.327759	-389.7391663	-880.0350342	1720.259277	-533.362915	-907.0967407	1358.046265	-345.6029663	-717.5800781	1507.188232	-601.3209229	-665.5206909	1333.054688	-608.5875244	-925.4400635	1506.484619	-504.4753418	-898.6352539	1307.684692	-602.9024658	-851.2840881	1201.843628	-340.1760254	-782.0779724	1320.36969	-605.7449951	-800.4691467	1552.076416	-595.6888733	-881.1517029	1720.722229	-590.8929138	-905.4729411	1468.213908	-457.4064128
